<?xml version="1.0" encoding="UTF-8"?>
<!DOCTYPE svg PUBLIC "-//W3C//DTD SVG 1.1//EN" "http://www.w3.org/Graphics/SVG/1.1/DTD/svg11.dtd">
<!-- Creator: CorelDRAW X8 -->
<svg xmlns="http://www.w3.org/2000/svg" xml:space="preserve" width="1290px" height="1290px" version="1.1" style="shape-rendering:geometricPrecision; text-rendering:geometricPrecision; image-rendering:optimizeQuality; fill-rule:evenodd; clip-rule:evenodd"
viewBox="0 0 1290 1290"
 xmlns:xlink="http://www.w3.org/1999/xlink">
 <defs>
  <style type="text/css">
   <![CDATA[
    .fil2 {fill:white}
    .fil3 {fill:#012827;fill-rule:nonzero}
    .fil0 {fill:white;fill-opacity:0.701961}
    .fil1 {fill:white;fill-opacity:0.800000}
    .fil4 {fill:url(#id0)}
   ]]>
  </style>
  <linearGradient id="id0" gradientUnits="userSpaceOnUse" x1="663.75" y1="829.375" x2="979.375" y2="829.375">
   <stop offset="0" style="stop-opacity:1; stop-color:#3390C3"/>
   <stop offset="0.509804" style="stop-opacity:1; stop-color:#66C390"/>
   <stop offset="1" style="stop-opacity:1; stop-color:#00FF90"/>
  </linearGradient>
 </defs>
 <g id="Camada_x0020_1">
  <metadata id="CorelCorpID_0Corel-Layer"/>
  <g id="_2879652122016">
   <path class="fil0" d="M645 1c356,0 644,288 644,644 0,356 -288,644 -644,644 -356,0 -644,-288 -644,-644 0,-356 288,-644 644,-644zm0 28c341,0 616,275 616,616 0,341 -275,616 -616,616 -341,0 -616,-275 -616,-616 0,-341 275,-616 616,-616z"/>
   <path class="fil1" d="M645 29c341,0 616,275 616,616 0,341 -275,616 -616,616 -341,0 -616,-275 -616,-616 0,-341 275,-616 616,-616zm0 28c325,0 588,263 588,588 0,325 -263,588 -588,588 -325,0 -588,-263 -588,-588 0,-325 263,-588 588,-588z"/>
   <circle class="fil2" cx="645" cy="645" r="588"/>
   <g id="_1955618948288">
    <path class="fil3" d="M948 342c-25,-25 -50,-35 -84,-35 -22,0 -44,7 -63,19l-3 0 -153 153 -153 -153 -3 0c-19,-12 -41,-19 -66,-19 -31,0 -59,10 -81,35 -22,22 -35,50 -35,81 0,25 7,47 22,66l-3 0 156 156 -140 138 0 0c0,0 0,0 0,3 -22,18 -35,47 -35,78 0,31 13,59 35,81 22,25 50,34 84,34 31,0 56,-9 78,-31 0,0 0,0 3,-3l0 0 138 -137 162 -163 157 -156 -3 0c15,-19 21,-41 21,-66 0,-31 -12,-59 -34,-81l0 0z"/>
    <path class="fil4" d="M711 723c-28,28 -44,66 -44,106 0,41 16,79 47,110l0 0c28,28 65,44 109,44 44,0 81,-16 113,-47l0 0c31,-29 47,-66 47,-107l0 0c0,-40 -16,-78 -47,-109l0 0c-32,-28 -69,-44 -113,-44l0 0c-44,0 -81,16 -112,47l0 0z"/>
   </g>
  </g>
 </g>
</svg>
