<?xml version="1.0" encoding="UTF-8"?>
<!DOCTYPE svg PUBLIC "-//W3C//DTD SVG 1.1//EN" "http://www.w3.org/Graphics/SVG/1.1/DTD/svg11.dtd">
<!-- Creator: CorelDRAW X8 -->
<svg xmlns="http://www.w3.org/2000/svg" xml:space="preserve" width="1410px" height="400px" version="1.1" style="shape-rendering:geometricPrecision; text-rendering:geometricPrecision; image-rendering:optimizeQuality; fill-rule:evenodd; clip-rule:evenodd"
viewBox="0 0 1410 400"
 xmlns:xlink="http://www.w3.org/1999/xlink">
 <defs>
  <style type="text/css">
   <![CDATA[
    .fil0 {fill:#012827;fill-rule:nonzero}
    .fil1 {fill:url(#id0)}
   ]]>
  </style>
  <linearGradient id="id0" gradientUnits="userSpaceOnUse" x1="1184.22" y1="350.88" x2="1404.79" y2="350.88">
   <stop offset="0" style="stop-opacity:1; stop-color:#3390C3"/>
   <stop offset="0.509804" style="stop-opacity:1; stop-color:#66C390"/>
   <stop offset="1" style="stop-opacity:1; stop-color:#00FF90"/>
  </linearGradient>
 </defs>
 <g id="Camada_x0020_1">
  <metadata id="CorelCorpID_0Corel-Layer"/>
  <g id="_1955964812896">
   <path class="fil0" d="M607 181c0,-11 -5,-21 -13,-30 -9,-8 -19,-13 -31,-13 -13,0 -23,5 -32,13 -8,9 -12,19 -12,30 0,1 0,1 0,1l0 0 0 55c0,0 0,0 0,0l0 46 0 0c-1,11 -5,21 -13,29 -8,8 -19,13 -31,13 -13,0 -23,-4 -31,-13 -9,-8 -13,-18 -13,-29l0 0 0 -101 0 0c0,0 0,0 0,-1 0,-11 -4,-21 -13,-30 -8,-8 -19,-13 -31,-13 -12,0 -23,5 -31,13 -9,9 -13,19 -13,30 0,1 0,1 0,1l0 0 0 113 0 0c0,1 0,3 0,4 0,26 10,49 29,68 19,19 43,29 70,29 28,0 52,-10 71,-30 2,-2 4,-4 6,-7 2,9 6,17 13,24 8,9 18,13 31,13 12,0 23,-5 31,-13 8,-8 13,-18 13,-30 0,0 0,-1 0,-1l0 0 0 -170 0 0c0,0 0,0 0,-1z"/>
   <path class="fil0" d="M306 87c0,-11 -5,-21 -13,-30 -9,-8 -19,-12 -31,-12 -13,0 -23,4 -32,12 -8,9 -12,19 -12,30 0,1 0,1 0,1l0 0 0 264 0 0c0,0 0,1 0,1 0,12 4,22 13,30 8,9 18,13 31,13 12,0 23,-5 31,-13 9,-8 13,-18 13,-30 0,0 0,-1 0,-1l0 0 0 -264 0 0c0,0 0,0 0,-1z"/>
   <path class="fil0" d="M879 151c-9,-9 -19,-14 -31,-14 -10,0 -18,3 -25,8l-1 0 -58 59 -59 -59 -1 0c-7,-5 -15,-8 -25,-8 -12,0 -22,5 -31,14 -9,8 -13,19 -13,31 0,10 2,18 7,25l0 0 59 59 -53 53 0 0c0,0 0,0 -1,1 -8,8 -12,18 -12,30 0,13 4,23 13,32 9,8 19,13 32,13 12,0 22,-4 30,-13 0,0 0,0 1,0l0 0 53 -53 62 -63 59 -59 0 0c5,-7 7,-16 7,-25 0,-12 -4,-23 -13,-31z"/>
   <path class="fil0" d="M138 138c-2,0 -3,1 -4,1l0 -17c0,-13 4,-20 11,-25 1,0 3,-2 6,-3 3,-1 12,-4 13,-5 4,-1 8,-3 11,-6 0,0 0,0 1,0 1,-2 3,-3 4,-5 9,-8 13,-18 13,-30 0,-12 -4,-22 -13,-31 -9,-9 -19,-13 -32,-13 -60,0 -90,56 -95,65 -6,12 -8,24 -8,38l0 0 0 1c0,0 0,0 0,0l0 17 0 14c-11,1 -20,5 -27,13 -9,8 -13,18 -13,30 0,12 4,23 13,31 8,8 16,12 27,13l0 126 0 0c0,0 0,1 0,1 0,12 4,22 13,30 8,9 18,13 30,13 13,0 23,-5 32,-13 8,-8 13,-18 13,-30 0,0 -1,-1 -1,-1l1 0 0 -126c1,0 3,0 5,0 12,0 23,-4 32,-13 8,-8 13,-19 13,-31 0,-12 -5,-22 -14,-31 -8,-8 -19,-13 -31,-13z"/>
   <path class="fil0" d="M874 296c-11,-12 -25,-18 -42,-18 -17,0 -31,7 -43,18 -11,12 -17,25 -17,41 0,16 6,30 17,42 12,11 26,17 43,17 17,0 31,-6 43,-18 11,-11 17,-25 17,-41 0,-16 -6,-29 -18,-41z"/>
   <path class="fil0" d="M1072 296c-9,9 -19,13 -32,13 -13,0 -23,-4 -32,-13 -9,-8 -13,-19 -13,-31 0,-11 4,-22 13,-30 9,-9 19,-13 32,-13 13,0 23,4 32,12 9,9 13,20 13,31 0,12 -4,22 -13,31zm68 -120c-25,-26 -56,-39 -92,-39 -3,0 -5,1 -7,1 -3,0 -5,-1 -7,-1 -37,0 -67,13 -93,39 -25,25 -37,55 -37,90 0,35 12,66 37,91 26,25 56,38 93,38 2,0 4,0 7,0 2,0 4,0 7,0 36,0 67,-13 92,-38 25,-25 38,-56 38,-91 0,-35 -13,-65 -38,-90z"/>
   <path class="fil1" d="M1228 307l0 0c0,0 0,0 -1,0l0 0c-11,0 -21,4 -30,13l0 0c-8,8 -13,19 -13,31l0 0c0,12 5,23 14,31l0 0c8,9 18,13 29,13l0 0c1,0 1,0 1,0l0 0 0 0 133 0 0 0c0,0 1,0 1,0l0 0c12,0 22,-4 30,-13l0 0c9,-8 13,-19 13,-31 0,-12 -4,-23 -13,-31l0 0c-8,-9 -18,-13 -30,-13l0 0c0,0 -1,0 -1,0l0 0 0 0 -133 0z"/>
  </g>
 </g>
</svg>
